<svg width="458" height="53" fill="none" xmlns="http://www.w3.org/2000/svg"><path d="M.5 8A7.5 7.5 0 0 1 8 .5h442a7.5 7.5 0 0 1 7.5 7.5v37a7.5 7.5 0 0 1-7.5 7.5H8A7.5 7.5 0 0 1 .5 45V8Z" fill="#F9FAFB" stroke="#E5E7EB"/><path d="M378 17c0-5.523 4.477-10 10-10h53c5.523 0 10 4.477 10 10v19c0 5.523-4.477 10-10 10h-53c-5.523 0-10-4.477-10-10V17ZM23.352 23.278v3.262h3.556v1.05h-3.556v3.36h3.976V32h-5.25v-9.772h5.25v1.05h-3.976Zm15.13.91c.597 0 1.13.126 1.596.378.466.243.835.611 1.106 1.106.27.495.406 1.097.406 1.806V32h-1.26v-4.34c0-.765-.192-1.349-.574-1.75-.374-.41-.882-.616-1.526-.616-.663 0-1.19.215-1.582.644-.392.42-.588 1.031-.588 1.834V32H34.8v-4.34c0-.765-.192-1.349-.574-1.75-.374-.41-.882-.616-1.526-.616-.663 0-1.19.215-1.582.644-.392.42-.588 1.031-.588 1.834V32h-1.274v-7.672h1.274v1.106a2.53 2.53 0 0 1 1.008-.924c.43-.215.9-.322 1.414-.322.644 0 1.213.145 1.708.434.494.29.863.714 1.106 1.274.214-.541.57-.961 1.064-1.26a3.134 3.134 0 0 1 1.652-.448Zm4.722 3.948c0-.784.158-1.47.476-2.058a3.458 3.458 0 0 1 1.302-1.386c.56-.327 1.18-.49 1.862-.49.672 0 1.255.145 1.75.434.494.29.863.653 1.106 1.092v-1.4h1.288V32H49.7v-1.428c-.252.448-.63.821-1.134 1.12-.495.29-1.074.434-1.736.434a3.477 3.477 0 0 1-1.848-.504 3.534 3.534 0 0 1-1.302-1.414c-.318-.607-.476-1.297-.476-2.072Zm6.496.014c0-.579-.117-1.083-.35-1.512a2.41 2.41 0 0 0-.952-.98 2.498 2.498 0 0 0-1.302-.35c-.476 0-.91.112-1.302.336-.392.224-.705.55-.938.98-.234.43-.35.933-.35 1.512 0 .588.116 1.101.35 1.54.233.43.546.76.938.994.392.224.826.336 1.302.336.476 0 .91-.112 1.302-.336.4-.233.718-.565.952-.994.233-.439.35-.947.35-1.526Zm4.098-5.068a.838.838 0 0 1-.616-.252.838.838 0 0 1-.252-.616c0-.243.084-.448.252-.616a.838.838 0 0 1 .616-.252c.234 0 .43.084.588.252a.838.838 0 0 1 .252.616.838.838 0 0 1-.252.616.777.777 0 0 1-.588.252Zm.616 1.246V32h-1.273v-7.672h1.273Zm3.446-2.688V32h-1.274V21.64h1.274Z" fill="#575445"/><path d="M394.172 32.098c-.644 0-1.223-.112-1.736-.336-.504-.233-.901-.55-1.19-.952a2.472 2.472 0 0 1-.448-1.414h1.358c.047.457.233.845.56 1.162.336.308.821.462 1.456.462.607 0 1.083-.15 1.428-.448.355-.308.532-.7.532-1.176 0-.373-.103-.677-.308-.91a1.965 1.965 0 0 0-.77-.532 12.013 12.013 0 0 0-1.246-.392c-.644-.168-1.162-.336-1.554-.504a2.578 2.578 0 0 1-.994-.784c-.271-.364-.406-.85-.406-1.456 0-.532.135-1.003.406-1.414.271-.41.649-.728 1.134-.952.495-.224 1.059-.336 1.694-.336.915 0 1.661.229 2.24.686.588.457.919 1.064.994 1.82h-1.4c-.047-.373-.243-.7-.588-.98-.345-.29-.803-.434-1.372-.434-.532 0-.966.14-1.302.42-.336.27-.504.653-.504 1.148 0 .355.098.644.294.868.205.224.453.397.742.518.299.112.714.243 1.246.392.644.177 1.162.355 1.554.532a2.51 2.51 0 0 1 1.008.798c.28.355.42.84.42 1.456 0 .476-.126.924-.378 1.344-.252.42-.625.76-1.12 1.022-.495.261-1.078.392-1.75.392Zm11.927-7.77V32h-1.274v-1.134c-.243.392-.584.7-1.022.924-.43.215-.906.322-1.428.322a3.491 3.491 0 0 1-1.61-.364 2.786 2.786 0 0 1-1.134-1.12c-.271-.495-.406-1.097-.406-1.806v-4.494h1.26v4.326c0 .756.191 1.34.574 1.75.382.401.905.602 1.568.602.681 0 1.218-.21 1.61-.63.392-.42.588-1.031.588-1.834v-4.214h1.274Zm3.425 1.428c.261-.457.644-.83 1.148-1.12.504-.29 1.078-.434 1.722-.434a3.58 3.58 0 0 1 1.862.49c.551.327.985.789 1.302 1.386.317.588.476 1.274.476 2.058 0 .775-.159 1.465-.476 2.072a3.5 3.5 0 0 1-1.316 1.414 3.48 3.48 0 0 1-1.848.504c-.663 0-1.246-.145-1.75-.434-.495-.29-.868-.658-1.12-1.106V32h-1.274V21.64h1.274v4.116Zm5.208 2.38c0-.579-.117-1.083-.35-1.512a2.41 2.41 0 0 0-.952-.98 2.578 2.578 0 0 0-1.302-.336c-.467 0-.901.117-1.302.35a2.512 2.512 0 0 0-.952.994c-.233.43-.35.929-.35 1.498 0 .579.117 1.087.35 1.526.243.43.56.76.952.994.401.224.835.336 1.302.336.476 0 .91-.112 1.302-.336.401-.233.719-.565.952-.994.233-.439.35-.952.35-1.54Zm12.205-3.948c.597 0 1.129.126 1.596.378.466.243.835.611 1.106 1.106.27.495.406 1.097.406 1.806V32h-1.26v-4.34c0-.765-.192-1.349-.574-1.75-.374-.41-.882-.616-1.526-.616-.663 0-1.19.215-1.582.644-.392.42-.588 1.031-.588 1.834V32h-1.26v-4.34c0-.765-.192-1.349-.574-1.75-.374-.41-.882-.616-1.526-.616-.663 0-1.19.215-1.582.644-.392.42-.588 1.031-.588 1.834V32h-1.274v-7.672h1.274v1.106a2.53 2.53 0 0 1 1.008-.924c.429-.215.9-.322 1.414-.322.644 0 1.213.145 1.708.434.494.29.863.714 1.106 1.274a2.512 2.512 0 0 1 1.064-1.26 3.131 3.131 0 0 1 1.652-.448Zm5.856-1.106a.837.837 0 0 1-.616-.252.838.838 0 0 1-.252-.616c0-.243.084-.448.252-.616a.837.837 0 0 1 .616-.252c.233 0 .429.084.588.252a.838.838 0 0 1 .252.616.838.838 0 0 1-.252.616.778.778 0 0 1-.588.252Zm.616 1.246V32h-1.274v-7.672h1.274Zm3.725 1.05V29.9c0 .373.079.64.238.798.159.15.434.224.826.224h.938V32h-1.148c-.709 0-1.241-.163-1.596-.49-.355-.327-.532-.863-.532-1.61v-4.522h-.994v-1.05h.994v-1.932h1.274v1.932h2.002v1.05h-2.002Z" fill="#fff"/></svg>